<svg xmlns="http://www.w3.org/2000/svg" xmlns:xlink="http://www.w3.org/1999/xlink"><symbol id="icon-cube"><path d="M0 44.727 27.857 61V37.153L0 20.777v23.95ZM52.155 12.69v2.559c0 1.842-3.558 3.378-7.828 3.378-4.372 0-7.829-1.536-7.829-3.378v-4.196c.305 1.74 3.66 3.172 7.829 3.172 4.371 0 7.828-1.535 7.828-3.377 0-1.842-3.558-3.378-7.828-3.378H43.31l-5.083-2.968v3.173c0 1.842-3.559 3.378-7.829 3.378-2.745 0-5.083-.614-6.506-1.536-.204-.204-.407-.409-.712-.614-.407-.409-.61-.818-.61-1.228v-3.07L17.69 7.47h-1.118c-4.372 0-7.829 1.536-7.829 3.378s3.559 3.377 7.829 3.377c4.168 0 7.523-1.432 7.828-3.172v4.196c0 1.842-3.558 3.378-7.828 3.378-4.372 0-7.829-1.536-7.829-3.378v-2.456l-6.1 3.582 27.959 16.376 27.856-16.274-6.303-3.787Zm-13.827 10.44c0 1.842-3.558 3.377-7.828 3.377-4.372 0-7.828-1.535-7.828-3.377v-4.196c.305 1.74 3.66 3.172 7.828 3.172s7.523-1.433 7.828-3.172v4.196Zm-5.185 14.226V61L61 44.727V21.084L33.143 37.357ZM30.398 6.755c4.372 0 7.829-1.535 7.829-3.377C38.227 1.535 34.668 0 30.398 0c-4.371 0-7.828 1.535-7.828 3.378 0 1.842 3.457 3.377 7.828 3.377Z"/></symbol><symbol id="icon-lamp"><path d="M15.502 37.656c-.306.994-.204 2.186 0 3.577.51 2.584 1.734 5.962 2.448 9.638h5.202c.714-3.577 1.938-6.955 2.55-9.638.305-1.39.305-2.682 0-3.577-.307-.894-.919-1.59-2.04-2.285h-6.12c-1.224.696-1.836 1.391-2.04 2.285ZM27.537 57.528H13.463c-1.326 0-2.346.994-2.346 2.186V61.9H29.883v-2.186c0-1.192-1.02-2.186-2.346-2.186ZM34.779 2.186H22.846C22.846.994 21.826 0 20.5 0s-2.346.994-2.346 2.186H6.221L0 27.522c.816-.496 1.632-.993 2.652-.993 1.428 0 2.244.795 2.957 1.39.714.597 1.224.796 1.428.796.306 0 .816-.298 1.53-.795.714-.497 1.632-1.391 2.958-1.391 1.326 0 2.244.795 2.958 1.39.713.498 1.223.796 1.53.796.101 0 .305-.1.611-.199.204-.1.51-.397.918-.596.51-.398 1.122-.994 2.04-1.192.306-.1.612-.1.918-.1 1.326 0 2.244.795 2.958 1.391.714.497 1.224.795 1.53.795.306 0 .816-.298 1.427-.795.714-.596 1.632-1.39 2.958-1.39 1.428 0 2.244.794 2.958 1.39.306.298.612.497.918.596.204.1.408.2.612.2.306 0 .816-.299 1.428-.895.713-.596 1.631-1.391 2.957-1.391 1.02 0 1.836.497 2.652.993l-6.12-25.336ZM23.968 53.057H16.93c-.714 0-1.121.497-1.121 1.093s.51 1.093 1.121 1.093h7.038c.714 0 1.122-.497 1.122-1.093.102-.596-.408-1.093-1.122-1.093Z"/><path d="M20.5 28.714c-.102 0-.306.1-.612.199-.204.1-.408.298-.612.397v3.677h2.346V29.41c-.51-.398-.918-.696-1.122-.696Z"/></symbol></svg>