<svg xmlns="http://www.w3.org/2000/svg" xmlns:xlink="http://www.w3.org/1999/xlink"><symbol id="icon-catalog-cart"><path d="M19.227 7.238h-3.382L12.56.402C12.367 0 11.98-.1 11.594.101c-.386.2-.483.603-.29 1.005L14.3 7.238H5.508l2.995-6.132c.194-.402 0-.804-.29-1.005-.386-.202-.772 0-.966.301L3.961 7.238H.773A.777.777 0 0 0 0 8.042c0 .402.29.805.773.805h.193l.87 3.015c-.193.101-.29.302-.29.604 0 .402.29.703.676.703L3.865 19h12.27l1.643-5.83c.386 0 .676-.302.676-.704 0-.201-.096-.503-.29-.604l.87-3.015h.193A.777.777 0 0 0 20 8.042a.777.777 0 0 0-.773-.804ZM14.88 17.392H4.831l-1.16-4.323h12.464L14.88 17.39Zm1.546-5.831H3.188l-.773-2.815h14.783l-.773 2.815Z"/></symbol><symbol id="icon-favourite"><g fill="none"><path d="M8.586 3.514 9.47 5.5l.934-1.961C11.14 1.988 12.505 1 13.99 1 16.095 1 18 2.964 18 5.633c0 2.566-1.854 5.41-4.063 7.727a24.465 24.465 0 0 1-3.084 2.74c-.45.331-.831.58-1.118.74a3.64 3.64 0 0 1-.227.118 3.772 3.772 0 0 1-.218-.116 11.551 11.551 0 0 1-1.115-.748 25.253 25.253 0 0 1-3.09-2.758C4 12.198 2.967 10.903 2.21 9.56 1.449 8.21 1 6.873 1 5.633 1 2.963 2.905 1 5.01 1c1.5 0 2.904 1.003 3.576 2.514Zm.782 13.5Zm.273.001Z" stroke="#000" stroke-opacity=".2" stroke-width="2"/></g></symbol></svg>