<svg width="27" height="34" xmlns="http://www.w3.org/2000/svg"><path d="M13.759 0h-.1L.22 1.396v24.627L13.659 34 27 26.023V1.396L13.759 0Zm11.35 12.065-11.45-6.78v-.1h-.1l-.099-.1v.1l-11.35 6.88V3.09l11.45-1.197 11.548 1.197v8.974ZM13.558 6.78l11.45 6.68-4.48 2.593-7.069-4.188v1.396l5.874 3.49-.896.498-4.978-2.99v1.395l3.783 2.293-.796.499-2.987-1.795v1.396l1.892 1.097-1.792 1.097-11.35-6.68 11.35-6.78ZM2.11 15.056l11.35 6.78v.997l-7.865-4.686v1.396l7.965 4.785v1.097L5.595 20.74v1.396l7.965 4.786 8.064-4.886V16.85l3.385-1.994v9.971l-11.45 6.88-11.449-6.78v-9.871Z"/></svg>