<svg width="29" height="22" xmlns="http://www.w3.org/2000/svg"><path d="m18.592 10.793-5.236-3.491a.655.655 0 0 0-1.015.545v6.982a.654.654 0 0 0 1.015.546l5.236-3.491a.655.655 0 0 0 0-1.091Zm-4.942 2.814V9.07l3.404 2.27-3.404 2.268Zm12.48-8.563a2.4 2.4 0 0 0-1.45-1.637C20.96 1.978 14.991 2 14.74 2c-.25 0-6.218-.022-9.938 1.407a2.4 2.4 0 0 0-1.45 1.637c-.285 1.069-.612 3.032-.612 6.294 0 3.262.327 5.226.611 6.295a2.4 2.4 0 0 0 1.451 1.636c3.72 1.43 9.687 1.407 9.938 1.407h.077c.752 0 6.316-.043 9.861-1.407a2.4 2.4 0 0 0 1.451-1.636c.284-1.07.611-3.033.611-6.295s-.327-5.225-.61-6.294Zm-1.265 12.261a1.09 1.09 0 0 1-.655.742c-3.49 1.342-9.403 1.32-9.469 1.32-.065 0-5.978.022-9.469-1.32a1.09 1.09 0 0 1-.654-.742c-.262-1.003-.568-2.847-.568-5.967 0-3.12.306-4.963.568-5.967a1.09 1.09 0 0 1 .654-.742c3.491-1.342 9.404-1.32 9.47-1.32.065 0 5.977-.022 9.468 1.32a1.092 1.092 0 0 1 .655.742c.262 1.004.567 2.847.567 5.967 0 3.12-.305 4.964-.567 5.967Z"/></svg>