<svg width="29" height="22" xmlns="http://www.w3.org/2000/svg"><g clip-path="url(#a)"><path d="M1.741 5.339c0-.855.515-1.316 1.546-1.383l3.97.025a.52.52 0 0 1 .532.377c.409 1.257.866 2.343 1.372 3.257.507.913 1.168 1.965 1.985 3.156.071.15.187.226.347.226.124 0 .222-.059.293-.176l.08-.277.026-4.35c0-.302-.075-.503-.226-.604-.151-.1-.43-.176-.84-.226-.32-.05-.479-.235-.479-.553 0-.067.009-.118.027-.151.373-1.09 1.438-1.635 3.197-1.635L15.063 3c.675 0 1.234.16 1.678.478.444.318.666.821.666 1.509v5.708c.125.084.24.126.347.126.266 0 .497-.15.692-.453 1.954-2.582 3.011-4.308 3.171-5.18 0-.017.018-.059.053-.126.125-.251.329-.47.613-.654.284-.184.533-.31.746-.377a.555.555 0 0 1 .24-.05h4.13l.266.025c.355 0 .63.16.826.478.071.1.12.21.147.327.026.117.044.234.053.352.009.117.013.184.013.2v.177c-.124.687-.44 1.42-.946 2.2-.506.78-1.15 1.622-1.931 2.528-.782.905-1.27 1.5-1.466 1.785-.16.201-.24.386-.24.553 0 .135.072.286.214.453l3.89 4.627c.213.269.32.562.32.88 0 .386-.16.705-.48.956-.32.252-.702.394-1.146.428l-.453.025h-4.05a.855.855 0 0 0-.106.012.862.862 0 0 1-.107.013c-.39 0-.755-.16-1.092-.478-.125-.134-.96-1.123-2.505-2.967a1.387 1.387 0 0 0-.373-.327c-.07.268-.164.654-.28 1.157-.115.503-.2.863-.252 1.081l-.08.427c-.178.587-.551.94-1.12 1.057l-.372.025h-2.612c-1.474 0-2.944-.637-4.409-1.911-1.465-1.275-2.784-2.922-3.956-4.942-1.173-2.02-2.265-4.372-3.278-7.054a1.916 1.916 0 0 1-.133-.73Zm16.013 6.513c-.373 0-.71-.096-1.013-.29-.302-.192-.453-.456-.453-.791V4.987c0-.336-.088-.575-.266-.717-.178-.143-.488-.214-.932-.214l-1.52.05c-.763 0-1.34.126-1.731.378.781.352 1.172.922 1.172 1.71v4.426a1.5 1.5 0 0 1-.533 1.044 1.59 1.59 0 0 1-1.065.414c-.533 0-.942-.243-1.226-.729-1.385-1.978-2.416-3.856-3.09-5.633l-.24-.654-3.544-.025c-.23 0-.36.013-.386.038-.027.025-.04.096-.04.213 0 .151.018.31.053.478l.56 1.409c1.492 3.638 3.112 6.505 4.862 8.6 1.75 2.096 3.468 3.144 5.155 3.144h2.665c.106 0 .186-.03.24-.088.053-.06.097-.172.133-.34l.053-.251.506-2.213c.142-.302.267-.503.373-.604a.976.976 0 0 1 .693-.277c.426 0 .862.243 1.306.73l2.264 2.716c.142.218.293.327.453.327H26.6c.533 0 .8-.126.8-.378a.466.466 0 0 0-.08-.251l-3.863-4.552c-.302-.352-.453-.73-.453-1.131 0-.403.142-.788.426-1.157.23-.336.68-.893 1.345-1.673A37.63 37.63 0 0 0 26.52 7.59c.498-.68.826-1.296.986-1.849l.08-.327a.37.37 0 0 1-.027-.163.574.574 0 0 0-.026-.189h-4.183c-.267.1-.48.252-.64.453l-.16.478c-.444 1.156-1.607 2.942-3.49 5.356a1.892 1.892 0 0 1-1.305.503Z"/></g><defs><clipPath id="a"><path transform="translate(.741)" d="M0 0h28v22H0z"/></clipPath></defs></svg>