<svg xmlns="http://www.w3.org/2000/svg" width="101" height="77" fill="none"><path fill="#63D1BB" d="M97.27 18.1s-.9-7-3.8-10.1c-3.6-4-7.71-4.1-9.51-4.3-13.31-1-33.33-1-33.33-1h-.1s-20.02 0-33.34 1c-1.9.2-5.9.3-9.5 4.3-2.8 3.1-3.8 10.1-3.8 10.1s-.9 8.2-.9 16.4v7.7c0 8.2.9 16.4.9 16.4s.9 7 3.8 10.1c3.6 4 8.4 3.9 10.5 4.3 7.61.8 32.44 1 32.44 1s20.02 0 33.33-1c1.9-.2 5.9-.3 9.5-4.3 2.81-3.1 3.81-10.1 3.81-10.1s.9-8.2.9-16.4v-7.7c0-8.2-.9-16.4-.9-16.4Z"/><path fill="#fff" d="M50.53 76.8c-1 0-25.03-.3-32.63-1h-.2c-.3-.1-.7-.1-1.1-.2-2.5-.3-7.21-.9-10.82-5-3.4-3.6-4.4-10.8-4.5-11.6 0-.3-1-8.5-1-16.7v-7.7c0-8.3.9-16.4.9-16.7v-.1c.1-.8 1.2-7.9 4.5-11.6 4-4.4 8.51-4.9 10.71-5.1.2 0 .4 0 .5-.1h.1c13.32-1 33.34-1 33.54-1h.1c.2 0 20.22 0 33.53 1h.1c.2 0 .3 0 .5.1 2.2.2 6.7.7 10.7 5.1 3.41 3.6 4.41 10.8 4.51 11.6 0 .3 1 8.5 1 16.8v7.7c0 8.3-.9 16.4-1 16.7v.1c-.1.8-1.2 8-4.5 11.6-4 4.4-8.5 4.9-10.71 5.1-.2 0-.4 0-.5.1h-.1c-13.31.9-33.43.9-33.63.9ZM18.6 70.4c7.5.7 31.23 1 32.03 1 .7 0 20.12 0 33.03-1 .2 0 .4 0 .6-.1 1.8-.2 4.6-.5 7.2-3.3 1.8-2 2.9-6.9 3.1-8.6.1-.5.9-8.4.9-16.1v-7.7c0-7.8-.9-15.6-1-16.1-.3-2.4-1.4-6.8-3.1-8.5-2.6-2.9-5.4-3.1-7.2-3.3-.2 0-.4 0-.6-.1-13.11-1-32.83-1-33.03-1h-.1c-.2 0-20.02 0-33.04 1-.2 0-.4 0-.6.1-1.8.2-4.6.5-7.2 3.3-1.8 2-2.9 6.9-3.1 8.6-.1.6-.9 8.4-.9 16.1v7.7c0 7.7.9 15.6.9 16.1.3 2.4 1.4 6.8 3.1 8.5 2.3 2.6 5.3 3 7.5 3.3.6-.1 1 0 1.5.1Z"/><path fill="#fff" d="M38.61 20.5v35.7l29.83-17.8-29.83-17.9Z"/></svg>