<svg width="19" height="18" fill="none" xmlns="http://www.w3.org/2000/svg"><path d="M8.586 3.514 9.47 5.5l.934-1.961C11.14 1.988 12.505 1 13.99 1 16.095 1 18 2.964 18 5.633c0 2.566-1.854 5.41-4.063 7.727a24.465 24.465 0 0 1-3.084 2.74c-.45.331-.831.58-1.118.74a3.64 3.64 0 0 1-.227.118 3.772 3.772 0 0 1-.218-.116 11.551 11.551 0 0 1-1.115-.748 25.253 25.253 0 0 1-3.09-2.758C4 12.198 2.967 10.903 2.21 9.56 1.449 8.21 1 6.873 1 5.633 1 2.963 2.905 1 5.01 1c1.5 0 2.904 1.003 3.576 2.514Zm.782 13.5Zm.273.001Z" stroke="#000" stroke-opacity=".2" stroke-width="2"/></svg>