<svg xmlns="http://www.w3.org/2000/svg" width="102" height="78" fill="none"><path fill="#63D1BB" d="M98.25 18.34s-.91-7.1-3.85-10.24c-3.65-4.05-7.81-4.15-9.64-4.35C71.28 2.74 51 2.74 51 2.74h-.1s-20.28 0-33.76 1c-1.93.21-5.99.31-9.64 4.36-2.84 3.14-3.85 10.24-3.85 10.24s-.91 8.3-.91 16.6v7.81c0 8.3.91 16.61.91 16.61s.91 7.1 3.85 10.23c3.65 4.06 8.52 3.96 10.65 4.36 7.7.81 32.85 1.01 32.85 1.01s20.28 0 33.76-1c1.93-.21 5.99-.31 9.64-4.37 2.83-3.14 3.85-10.23 3.85-10.23s.91-8.3.91-16.61v-7.8c0-8.3-.91-16.61-.91-16.61Z"/><path fill="#fff" d="M50.9 77.8c-1.02 0-25.35-.3-33.06-1.01h-.2c-.3-.1-.7-.1-1.11-.2-2.54-.3-7.3-.92-10.95-5.07C2.13 67.87 1.12 60.58 1 59.77c0-.3-1.01-8.61-1.01-16.92v-7.8c0-8.4.91-16.61.91-16.92v-.1c.1-.8 1.22-8 4.57-11.75a15.63 15.63 0 0 1 10.84-5.17c.2 0 .41 0 .51-.1h.1C30.42 0 50.7 0 50.9 0h.1c.2 0 20.48 0 33.97 1.01h.1c.2 0 .3 0 .5.1 2.24.2 6.8.71 10.85 5.17 3.45 3.65 4.47 10.94 4.57 11.75 0 .3 1.01 8.61 1.01 17.02v7.8c0 8.4-.91 16.61-1.01 16.92v.1c-.1.81-1.22 8.1-4.57 11.75a15.63 15.63 0 0 1-10.85 5.17c-.2 0-.4 0-.5.1h-.1c-13.49.91-33.87.91-34.07.91Zm-32.35-6.48c7.6.7 31.64 1.01 32.45 1.01.71 0 20.38 0 33.46-1.01.2 0 .4 0 .6-.1 1.83-.2 4.67-.51 7.3-3.35 1.83-2.02 2.95-6.99 3.15-8.71.1-.5.91-8.5.91-16.3v-7.81c0-7.9-.9-15.8-1.01-16.3-.3-2.44-1.42-6.9-3.14-8.62-2.64-2.94-5.48-3.14-7.3-3.34-.2 0-.4 0-.61-.1C71.08 5.67 51.1 5.67 50.9 5.67h-.1c-.2 0-20.28 0-33.46 1.02-.2 0-.4 0-.61.1-1.83.2-4.66.5-7.3 3.34-1.83 2.03-2.94 6.99-3.14 8.71-.1.61-.92 8.51-.92 16.31v7.8c0 7.8.92 15.8.92 16.31.3 2.43 1.42 6.89 3.14 8.61 2.33 2.64 5.37 3.04 7.6 3.35.61-.1 1.02 0 1.52.1Z"/><path fill="#fff" d="M38.83 20.77v36.16L69.05 38.9 38.83 20.77Z"/></svg>