<svg width="61" height="61" xmlns="http://www.w3.org/2000/svg"><path d="M0 44.727 27.857 61V37.153L0 20.777v23.95ZM52.155 12.69v2.559c0 1.842-3.558 3.378-7.828 3.378-4.372 0-7.829-1.536-7.829-3.378v-4.196c.305 1.74 3.66 3.172 7.829 3.172 4.371 0 7.828-1.535 7.828-3.377 0-1.842-3.558-3.378-7.828-3.378H43.31l-5.083-2.968v3.173c0 1.842-3.559 3.378-7.829 3.378-2.745 0-5.083-.614-6.506-1.536-.204-.204-.407-.409-.712-.614-.407-.409-.61-.818-.61-1.228v-3.07L17.69 7.47h-1.118c-4.372 0-7.829 1.536-7.829 3.378s3.559 3.377 7.829 3.377c4.168 0 7.523-1.432 7.828-3.172v4.196c0 1.842-3.558 3.378-7.828 3.378-4.372 0-7.829-1.536-7.829-3.378v-2.456l-6.1 3.582 27.959 16.376 27.856-16.274-6.303-3.787Zm-13.827 10.44c0 1.842-3.558 3.377-7.828 3.377-4.372 0-7.828-1.535-7.828-3.377v-4.196c.305 1.74 3.66 3.172 7.828 3.172s7.523-1.433 7.828-3.172v4.196Zm-5.185 14.226V61L61 44.727V21.084L33.143 37.357ZM30.398 6.755c4.372 0 7.829-1.535 7.829-3.377C38.227 1.535 34.668 0 30.398 0c-4.371 0-7.828 1.535-7.828 3.378 0 1.842 3.457 3.377 7.828 3.377Z"/></svg>